{
  "asset": {
    "generator": "Khronos glTF Blender I/O v1.3.48",
    "version": "2.0"
  },
  "scene": 0,
  "scenes": [
    {
      "name": "Scene",
      "nodes": [
        0
      ]
    }
  ],
  "nodes": [
    {
      "mesh": 0,
      "name": "Mesh_0",
      "rotation": [
        -0.7071068286895752,
        0,
        0,
        0.7071068286895752
      ],
      "scale": [
        0.2087615430355072,
        0.2087615430355072,
        0.2087615430355072
      ],
      "translation": [
        0.07047226279973984,
        0.23746661841869354,
        0
      ]
    }
  ],
  "materials": [
    {
      "doubleSided": true,
      "emissiveFactor": [
        0,
        0,
        0
      ],
      "name": "Material",
      "pbrMetallicRoughness": {
        "baseColorFactor": [
          0.40196919441223145,
          0.13971415162086487,
          0.08087945729494095,
          1
        ],
        "metallicFactor": 0,
        "roughnessFactor": 0.3546099066734314
      },
      "alphaMode": "OPAQUE"
    }
  ],
  "meshes": [
    {
      "name": "Mesh_0",
      "primitives": [
        {
          "attributes": {
            "POSITION": 0,
            "NORMAL": 1
          },
          "indices": 2,
          "material": 0,
          "mode": 4
        }
      ]
    }
  ],
  "accessors": [
    {
      "bufferView": 0,
      "componentType": 5126,
      "count": 12248,
      "max": [
        3.1920361518859863,
        2.110429286956787,
        6.5047101974487305
      ],
      "min": [
        -5.716164588928223,
        -2.1105709075927734,
        -5.093890190124512
      ],
      "type": "VEC3",
      "byteOffset": 0
    },
    {
      "bufferView": 1,
      "componentType": 5126,
      "count": 12248,
      "type": "VEC3",
      "byteOffset": 0
    },
    {
      "bufferView": 2,
      "componentType": 5123,
      "count": 73392,
      "type": "SCALAR",
      "byteOffset": 0
    }
  ],
  "bufferViews": [
    {
      "buffer": 0,
      "byteLength": 146976,
      "byteOffset": 0,
      "byteStride": 12,
      "target": 34962
    },
    {
      "buffer": 0,
      "byteLength": 146976,
      "byteOffset": 146976,
      "byteStride": 12,
      "target": 34962
    },
    {
      "buffer": 0,
      "byteLength": 146784,
      "byteOffset": 293952,
      "target": 34963
    }
  ],
  "buffers": [
    {
      "name": "bunny",
      "byteLength": 440736,
      "uri": "data:application/octet-stream;base64,"
    }
  ]
}
