{
  "asset": {
    "generator": "Khronos glTF Blender I/O v1.3.48",
    "version": "2.0"
  },
  "scene": 0,
  "scenes": [
    {
      "name": "Scene",
      "nodes": [
        0
      ]
    }
  ],
  "nodes": [
    {
      "mesh": 0,
      "name": "Line001_Material #26_0",
      "scale": [
        0.01471725758165121,
        0.01471725758165121,
        0.01471725758165121
      ],
      "translation": [
        0,
        0.19210053980350494,
        0
      ],
      "rotation": [
        0,
        0,
        0,
        1
      ]
    }
  ],
  "materials": [
    {
      "doubleSided": true,
      "emissiveFactor": [
        0,
        0,
        0
      ],
      "name": "Material_0",
      "pbrMetallicRoughness": {
        "baseColorFactor": [
          0.8000000715255737,
          0.298296183347702,
          0.07642511278390884,
          1
        ],
        "metallicFactor": 0,
        "roughnessFactor": 1
      },
      "alphaMode": "OPAQUE"
    },
    {
      "doubleSided": true,
      "emissiveFactor": [
        0,
        0,
        0
      ],
      "name": "Material",
      "pbrMetallicRoughness": {
        "baseColorFactor": [
          0.7783359885215759,
          0.8000000715255737,
          0.10328326374292374,
          1
        ],
        "metallicFactor": 0,
        "roughnessFactor": 0.5
      },
      "alphaMode": "OPAQUE"
    },
    {
      "doubleSided": true,
      "emissiveFactor": [
        0,
        0,
        0
      ],
      "name": "Material.003",
      "pbrMetallicRoughness": {
        "baseColorFactor": [
          0.11492870002985,
          0.5814628005027771,
          0.14189249277114868,
          1
        ],
        "metallicFactor": 0,
        "roughnessFactor": 0.5
      },
      "alphaMode": "OPAQUE"
    },
    {
      "doubleSided": true,
      "emissiveFactor": [
        0,
        0,
        0
      ],
      "name": "Material.002",
      "pbrMetallicRoughness": {
        "baseColorFactor": [
          0.8000000715255737,
          0.07138027250766754,
          0.11748325079679489,
          1
        ],
        "metallicFactor": 0,
        "roughnessFactor": 0.5
      },
      "alphaMode": "OPAQUE"
    },
    {
      "doubleSided": true,
      "emissiveFactor": [
        0,
        0,
        0
      ],
      "name": "Material.004",
      "pbrMetallicRoughness": {
        "baseColorFactor": [
          0.800000011920929,
          0.800000011920929,
          0.800000011920929,
          1
        ],
        "metallicFactor": 0,
        "roughnessFactor": 0.5
      },
      "alphaMode": "OPAQUE"
    }
  ],
  "meshes": [
    {
      "name": "Mesh_0",
      "primitives": [
        {
          "attributes": {
            "POSITION": 0,
            "NORMAL": 1
          },
          "indices": 2,
          "material": 0,
          "mode": 4
        },
        {
          "attributes": {
            "POSITION": 3,
            "NORMAL": 4
          },
          "indices": 5,
          "material": 1,
          "mode": 4
        },
        {
          "attributes": {
            "POSITION": 6,
            "NORMAL": 7
          },
          "indices": 8,
          "material": 2,
          "mode": 4
        },
        {
          "attributes": {
            "POSITION": 9,
            "NORMAL": 10
          },
          "indices": 11,
          "material": 3,
          "mode": 4
        },
        {
          "attributes": {
            "POSITION": 12,
            "NORMAL": 13
          },
          "indices": 14,
          "material": 4,
          "mode": 4
        }
      ]
    }
  ],
  "accessors": [
    {
      "bufferView": 0,
      "componentType": 5126,
      "count": 6624,
      "max": [
        109.1567611694336,
        80.67952728271484,
        51.20812225341797
      ],
      "min": [
        -61.165958404541016,
        -90.40069580078125,
        -51.20811080932617
      ],
      "type": "VEC3",
      "byteOffset": 0
    },
    {
      "bufferView": 1,
      "componentType": 5126,
      "count": 6624,
      "type": "VEC3",
      "byteOffset": 0
    },
    {
      "bufferView": 2,
      "componentType": 5123,
      "count": 9936,
      "type": "SCALAR",
      "byteOffset": 0
    },
    {
      "bufferView": 3,
      "componentType": 5126,
      "count": 2316,
      "max": [
        9.91438102722168,
        58.085716247558594,
        33.18901062011719
      ],
      "min": [
        -62.653995513916016,
        -102.64042663574219,
        -33.18899917602539
      ],
      "type": "VEC3",
      "byteOffset": 0
    },
    {
      "bufferView": 4,
      "componentType": 5126,
      "count": 2316,
      "type": "VEC3",
      "byteOffset": 0
    },
    {
      "bufferView": 5,
      "componentType": 5123,
      "count": 3474,
      "type": "SCALAR",
      "byteOffset": 0
    },
    {
      "bufferView": 6,
      "componentType": 5126,
      "count": 240,
      "max": [
        107.70301818847656,
        46.454383850097656,
        9.857734680175781
      ],
      "min": [
        78.50952911376953,
        4.400873184204102,
        -9.857728958129883
      ],
      "type": "VEC3",
      "byteOffset": 0
    },
    {
      "bufferView": 7,
      "componentType": 5126,
      "count": 240,
      "type": "VEC3",
      "byteOffset": 0
    },
    {
      "bufferView": 8,
      "componentType": 5123,
      "count": 360,
      "type": "SCALAR",
      "byteOffset": 0
    },
    {
      "bufferView": 9,
      "componentType": 5126,
      "count": 1800,
      "max": [
        113.99449157714844,
        90.05583190917969,
        13.395084381103516
      ],
      "min": [
        -59.344276428222656,
        -17.226980209350586,
        -12.036155700683594
      ],
      "type": "VEC3",
      "byteOffset": 0
    },
    {
      "bufferView": 10,
      "componentType": 5126,
      "count": 1800,
      "type": "VEC3",
      "byteOffset": 0
    },
    {
      "bufferView": 11,
      "componentType": 5123,
      "count": 2700,
      "type": "SCALAR",
      "byteOffset": 0
    },
    {
      "bufferView": 12,
      "componentType": 5126,
      "count": 48,
      "max": [
        -32.0432014465332,
        65.71961975097656,
        18.097875595092773
      ],
      "min": [
        -41.15131759643555,
        56.590946197509766,
        -18.097869873046875
      ],
      "type": "VEC3",
      "byteOffset": 0
    },
    {
      "bufferView": 13,
      "componentType": 5126,
      "count": 48,
      "type": "VEC3",
      "byteOffset": 0
    },
    {
      "bufferView": 14,
      "componentType": 5123,
      "count": 72,
      "type": "SCALAR",
      "byteOffset": 0
    }
  ],
  "bufferViews": [
    {
      "buffer": 0,
      "byteLength": 79488,
      "byteOffset": 0,
      "byteStride": 12,
      "target": 34962
    },
    {
      "buffer": 0,
      "byteLength": 79488,
      "byteOffset": 79488,
      "byteStride": 12,
      "target": 34962
    },
    {
      "buffer": 0,
      "byteLength": 19872,
      "byteOffset": 158976,
      "target": 34963
    },
    {
      "buffer": 0,
      "byteLength": 27792,
      "byteOffset": 178848,
      "byteStride": 12,
      "target": 34962
    },
    {
      "buffer": 0,
      "byteLength": 27792,
      "byteOffset": 206640,
      "byteStride": 12,
      "target": 34962
    },
    {
      "buffer": 0,
      "byteLength": 6948,
      "byteOffset": 234432,
      "target": 34963
    },
    {
      "buffer": 0,
      "byteLength": 2880,
      "byteOffset": 241380,
      "byteStride": 12,
      "target": 34962
    },
    {
      "buffer": 0,
      "byteLength": 2880,
      "byteOffset": 244260,
      "byteStride": 12,
      "target": 34962
    },
    {
      "buffer": 0,
      "byteLength": 720,
      "byteOffset": 247140,
      "target": 34963
    },
    {
      "buffer": 0,
      "byteLength": 21600,
      "byteOffset": 247860,
      "byteStride": 12,
      "target": 34962
    },
    {
      "buffer": 0,
      "byteLength": 21600,
      "byteOffset": 269460,
      "byteStride": 12,
      "target": 34962
    },
    {
      "buffer": 0,
      "byteLength": 5400,
      "byteOffset": 291060,
      "target": 34963
    },
    {
      "buffer": 0,
      "byteLength": 576,
      "byteOffset": 296460,
      "byteStride": 12,
      "target": 34962
    },
    {
      "buffer": 0,
      "byteLength": 576,
      "byteOffset": 297036,
      "byteStride": 12,
      "target": 34962
    },
    {
      "buffer": 0,
      "byteLength": 144,
      "byteOffset": 297612,
      "target": 34963
    }
  ],
  "buffers": [
    {
      "name": "chikken",
      "byteLength": 297756,
      "uri": "data:application/octet-stream;base64,"
    }
  ]
}
